<svg xmlns="http://www.w3.org/2000/svg" xmlns:xlink="http://www.w3.org/1999/xlink" version="1.1" id="Livello_1" x="0px" y="0px" viewBox="0 0 963.78 1587.4" enable-background="new 0 0 963.78 1587.4" xml:space="preserve">
<path fill="#6080ff" stroke="#000000" stroke-width="5" stroke-miterlimit="10" d="M126.836,704.144c-42.996,28.54-85.103-4.688-123.541-28.17  c5.416,3.309-1.803,83.249-1.004,93.44c3.438,43.889,1.282,80.298,28.763,116.171c62.445,81.517,210.775,94.402,267.032-1.93  c50.939-87.229,46.263-186.556,53.467-283.387c6.11-82.125-1.584-146.41,76.221-194.253  c64.567-39.704,136.354-11.421,166.457,54.066c65.666,142.853-13.311,375.025,146.185,470.511  c45.838,27.442,108.556,20.483,155.013-1.621c21.723-10.336,50.014-27.858,60.433-50.822c11.735-25.869,2.965-60.306,3.787-87.663  c1.068-35.55,9.302-79.208-0.628-113.596c-20.617,10.903-33.832,30.3-59.142,38.896c-28.601,9.713-60.777,10.479-82.936-13.122  c-26.177-27.891-19.497-72.643-24.013-107.505c-7.986-61.664-8.833-124.334-14.748-186.227  C766.397,285.641,738.287,161.82,651.007,68.818C582.482-4.198,457.863-19.858,372.696,34.02  c-72.242,45.705-123.991,91.534-151.164,176.089c-29.781,92.673-38.773,200.285-38.475,297.867  c0.167,54.82-2.342,151.334-48.24,190.152C132.154,700.38,129.493,702.38,126.836,704.144z"/>
</svg>
