<svg xmlns="http://www.w3.org/2000/svg" id="alpha-helix" width="0.7em" x="0px" y="0px" viewBox="0 0 963.78 1587.4"
     preserveAspectRatio="none" enable-background="new 0 0 963.78 1587.4" xml:space="preserve"><path d="M0,665.545"/>
    <path style="fill:rgb(240,0,128);"
          d="M7,691c-2.825,59.659,8.435,116.653,6.962,176.309  c-2.126,86.119,8.999,168.953,21.967,253.74c7.673,50.17,16.183,100.271,27.762,149.706c17.538,74.873,35.635,148.402,81.801,211.35  c33.037,45.045,76.542,69.859,130.521,79.056c147.959,25.208,225.187-111.229,251.929-232.674  c20.553-93.348,26.027-188.996,35.963-283.827c12.16-116.095-9.854-249.139,51.535-354.533  c26.216-45.008,79.912-87.811,134.044-93.67c65.497-7.09,113.689,52.59,135.384,107.506  c25.648,64.927,33.322,141.579,70.184,201.528c17.244-16.261,10.323-70.57,9.487-95.14c-1.506-44.307,0.823-83.339-6.961-126.96  c-20.395-114.279-22.992-236.804-54.565-347.808C868.34,213.678,812.663-62.602,627.257,12.459  C479.538,72.264,448.893,277.771,431.147,417.19c-8.481,66.632-13.854,133.623-22.581,200.225  c-8.457,64.544-5.9,127.593-22.444,191.979c-17.752,69.089-55.739,176.947-129.987,202.952c-34.633,12.127-72.727,7.646-104-10.787  C39.193,934.987,55.326,786.128,7,681"/></svg>